<svg width="24" height="24" viewBox="0 0 24 24" fill="none" xmlns="http://www.w3.org/2000/svg">
<path d="M24 22.08C24 22.704 23.8023 23.18 23.407 23.508C23.0117 23.836 22.5265 24 21.9515 24H2.04852C1.4735 24 0.98832 23.832 0.592992 23.496C0.197664 23.16 0 22.688 0 22.08C0 21.6 0.12938 21.112 0.38814 20.616L10.3288 1.32C10.8032 0.44 11.3639 0 12.0108 0C12.6577 0 13.204 0.44 13.6496 1.32L23.6119 20.64C23.8706 21.152 24 21.632 24 22.08ZM13.4987 9.816V6.312H10.5013V9.816C10.5013 10.04 10.5157 10.252 10.5445 10.452C10.5732 10.652 10.6128 10.876 10.6631 11.124C10.7134 11.372 10.7529 11.584 10.7817 11.76L11.3423 15.648H12.6146L13.1968 11.76C13.2255 11.6 13.2686 11.392 13.3261 11.136C13.3836 10.88 13.4268 10.652 13.4555 10.452C13.4843 10.252 13.4987 10.04 13.4987 9.816ZM13.4987 19.104C13.4987 18.64 13.3513 18.248 13.0566 17.928C12.7619 17.608 12.4061 17.448 11.9892 17.448C11.5867 17.448 11.2381 17.608 10.9434 17.928C10.6487 18.248 10.5013 18.64 10.5013 19.104C10.5013 19.568 10.6487 19.964 10.9434 20.292C11.2381 20.62 11.5867 20.784 11.9892 20.784C12.4061 20.784 12.7619 20.62 13.0566 20.292C13.3513 19.964 13.4987 19.568 13.4987 19.104Z" fill="#F5953D"/>
</svg>
