<svg width="28" height="27" viewBox="0 0 28 27" fill="none" xmlns="http://www.w3.org/2000/svg">
<path d="M28 11C28 17.0751 23.0751 22 17 22C10.9249 22 6 17.0751 6 11C6 4.92487 10.9249 0 17 0C23.0751 0 28 4.92487 28 11Z" fill="#FDE7D3"/>
<path d="M6.0625 13.75H2.9375C2.41973 13.75 2 14.1697 2 14.6875V24.0625C2 24.5803 2.41973 25 2.9375 25H6.0625C6.58028 25 7 24.5803 7 24.0625V14.6875C7 14.1697 6.58028 13.75 6.0625 13.75ZM4.5 23.4375C3.98223 23.4375 3.5625 23.0178 3.5625 22.5C3.5625 21.9822 3.98223 21.5625 4.5 21.5625C5.01778 21.5625 5.4375 21.9822 5.4375 22.5C5.4375 23.0178 5.01778 23.4375 4.5 23.4375ZM17 8.18172C17 9.83859 15.9856 10.768 15.7001 11.875H19.6737C20.9783 11.875 21.9939 12.9588 22 14.1445C22.0033 14.8452 21.7052 15.5995 21.2406 16.0662L21.2363 16.0705C21.6206 16.9821 21.5581 18.2595 20.8727 19.1748C21.2118 20.1863 20.8701 21.4288 20.2328 22.095C20.4007 22.7824 20.3205 23.3674 19.9927 23.8384C19.1954 24.9839 17.2194 25 15.5484 25L15.4373 25C13.5511 24.9993 12.0074 24.3125 10.767 23.7607C10.1436 23.4834 9.32864 23.1401 8.71028 23.1287C8.45481 23.1241 8.25 22.9156 8.25 22.6601V14.3097C8.25 14.1847 8.30008 14.0647 8.38899 13.9768C9.93641 12.4478 10.6018 10.8289 11.8701 9.55844C12.4484 8.97906 12.6587 8.10391 12.862 7.25758C13.0357 6.53488 13.3991 5 14.1875 5C15.125 5 17 5.3125 17 8.18172Z" fill="#F5953D"/>
</svg>
