<svg width="28" height="27" viewBox="0 0 28 27" fill="none" xmlns="http://www.w3.org/2000/svg">
<path d="M28 11C28 17.0751 23.0751 22 17 22C10.9249 22 6 17.0751 6 11C6 4.92487 10.9249 0 17 0C23.0751 0 28 4.92487 28 11Z" fill="#FDE7D3"/>
<path d="M5 12.557V20C5 20.7956 5.31607 21.5587 5.87868 22.1213C6.44129 22.6839 7.20435 23 8 23H20C20.7956 23 21.5587 22.6839 22.1213 22.1213C22.6839 21.5587 23 20.7956 23 20V11C23 10.2044 22.6839 9.44129 22.1213 8.87868C21.5587 8.31607 20.7956 8 20 8H8C7.20435 8 6.44129 8.31607 5.87868 8.87868C5.31607 9.44129 5 10.2044 5 11V12.557ZM8 9.5H20C20.3978 9.5 20.7794 9.65804 21.0607 9.93934C21.342 10.2206 21.5 10.6022 21.5 11V12.11L14 16.148L6.5 12.11V11C6.5 10.6022 6.65804 10.2206 6.93934 9.93934C7.22064 9.65804 7.60218 9.5 8 9.5ZM6.5 13.814L13.6445 17.66C13.7538 17.7188 13.8759 17.7496 14 17.7496C14.1241 17.7496 14.2462 17.7188 14.3555 17.66L21.5 13.814V20C21.5 20.3978 21.342 20.7794 21.0607 21.0607C20.7794 21.342 20.3978 21.5 20 21.5H8C7.60218 21.5 7.22064 21.342 6.93934 21.0607C6.65804 20.7794 6.5 20.3978 6.5 20V13.814Z" fill="#F5953D"/>
</svg>
