<svg width="188" height="51" viewBox="0 0 188 51" fill="none" xmlns="http://www.w3.org/2000/svg">
<path d="M23.3058 7.33634C23.648 3.74369 26.6654 1 30.2743 1H180C183.866 1 187 4.13401 187 8V43C187 46.866 183.866 50 180 50H30.2021C26.6198 50 23.6156 47.2954 23.2405 43.7328L22.2706 34.518C22.0612 32.5291 20.6869 30.8563 18.7765 30.265L3.95088 25.6761L18.3435 22.5919C20.4762 22.1349 22.0666 20.3482 22.2734 18.177L23.3058 7.33634Z" fill="#444444" stroke="white" stroke-width="2"/>
<path d="M47.0117 31V21.0469H50.4229C51.5485 21.0469 52.4053 21.2725 52.9932 21.7236C53.5811 22.1748 53.875 22.847 53.875 23.7402C53.875 24.196 53.752 24.6061 53.5059 24.9707C53.2598 25.3353 52.8997 25.6178 52.4258 25.8184C52.9635 25.9642 53.3783 26.2399 53.6699 26.6455C53.9661 27.0465 54.1143 27.5296 54.1143 28.0947C54.1143 29.029 53.8135 29.7467 53.2119 30.248C52.6149 30.7493 51.7581 31 50.6416 31H47.0117ZM48.7412 26.5088V29.6191H50.6621C51.2044 29.6191 51.6283 29.4847 51.9336 29.2158C52.2389 28.9469 52.3916 28.5732 52.3916 28.0947C52.3916 27.0602 51.863 26.5316 50.8057 26.5088H48.7412ZM48.7412 25.2373H50.4365C50.9743 25.2373 51.3936 25.1165 51.6943 24.875C51.9997 24.6289 52.1523 24.2826 52.1523 23.8359C52.1523 23.3438 52.0111 22.9883 51.7285 22.7695C51.4505 22.5508 51.0153 22.4414 50.4229 22.4414H48.7412V25.2373ZM58.0411 24.8545H60.0782C60.8074 24.8545 61.4431 24.9798 61.9854 25.2305C62.5277 25.4811 62.9402 25.8366 63.2227 26.2969C63.5053 26.7572 63.6466 27.2904 63.6466 27.8965C63.6466 28.8262 63.3298 29.5736 62.6964 30.1387C62.0675 30.7038 61.2084 30.9909 60.1192 31H56.3116V21.0469H58.0411V24.8545ZM66.3536 31H64.6309V21.0469H66.3536V31ZM58.0411 26.2422V29.6191H60.0714C60.6547 29.6191 61.1082 29.4619 61.4317 29.1475C61.7598 28.8285 61.9239 28.4069 61.9239 27.8828C61.9239 27.3815 61.7644 26.985 61.4454 26.6934C61.1264 26.4017 60.6843 26.2513 60.1192 26.2422H58.0411ZM75.1818 22.4414H70.5949V24.8545H72.632C73.3612 24.8545 73.9969 24.9798 74.5392 25.2305C75.0815 25.4811 75.494 25.8366 75.7765 26.2969C76.0591 26.7572 76.2004 27.2904 76.2004 27.8965C76.2004 28.8262 75.8836 29.5736 75.2502 30.1387C74.6213 30.7038 73.7622 30.9909 72.673 31H68.8654V21.0469H75.1818V22.4414ZM70.5949 26.2422V29.6191H72.6252C73.2085 29.6191 73.6619 29.4619 73.9855 29.1475C74.3136 28.8285 74.4777 28.4069 74.4777 27.8828C74.4777 27.3815 74.3182 26.985 73.9992 26.6934C73.6802 26.4017 73.2381 26.2513 72.673 26.2422H70.5949ZM79.8469 27.3018V31H78.1174V21.0469H81.925C83.037 21.0469 83.9189 21.3363 84.5705 21.915C85.2268 22.4938 85.5549 23.2594 85.5549 24.2119C85.5549 25.1872 85.2336 25.946 84.5911 26.4883C83.953 27.0306 83.0575 27.3018 81.9045 27.3018H79.8469ZM79.8469 25.9141H81.925C82.5403 25.9141 83.0097 25.7705 83.3332 25.4834C83.6568 25.1917 83.8186 24.7725 83.8186 24.2256C83.8186 23.6878 83.6545 23.2594 83.3264 22.9404C82.9983 22.6169 82.5471 22.4505 81.9729 22.4414H79.8469V25.9141ZM91.847 28.6826H87.9915L87.1849 31H85.387L89.1468 21.0469H90.6986L94.4652 31H92.6605L91.847 28.6826ZM88.4769 27.2881H91.3616L89.9193 23.1592L88.4769 27.2881ZM102.391 22.4414H99.2875V31H97.5717V22.4414H94.4955V21.0469H102.391V22.4414ZM105.935 24.8545H107.972C108.701 24.8545 109.337 24.9798 109.879 25.2305C110.422 25.4811 110.834 25.8366 111.117 26.2969C111.399 26.7572 111.541 27.2904 111.541 27.8965C111.541 28.8262 111.224 29.5736 110.59 30.1387C109.961 30.7038 109.102 30.9909 108.013 31H104.206V21.0469H105.935V24.8545ZM105.935 26.2422V29.6191H107.965C108.549 29.6191 109.002 29.4619 109.326 29.1475C109.654 28.8285 109.818 28.4069 109.818 27.8828C109.818 27.3815 109.658 26.985 109.339 26.6934C109.02 26.4017 108.578 26.2513 108.013 26.2422H105.935ZM123.728 22.4414H119.134V31H117.412V21.0469H123.728V22.4414ZM133.069 26.2832C133.069 27.2585 132.9 28.1152 132.563 28.8535C132.226 29.5872 131.743 30.1523 131.114 30.5488C130.49 30.9408 129.77 31.1367 128.954 31.1367C128.147 31.1367 127.427 30.9408 126.794 30.5488C126.165 30.1523 125.677 29.5895 125.331 28.8604C124.989 28.1312 124.816 27.2904 124.811 26.3379V25.7773C124.811 24.8066 124.982 23.9499 125.324 23.207C125.67 22.4642 126.156 21.8968 126.78 21.5049C127.409 21.1084 128.129 20.9102 128.94 20.9102C129.751 20.9102 130.469 21.1061 131.093 21.498C131.722 21.8854 132.208 22.446 132.55 23.1797C132.891 23.9089 133.065 24.7588 133.069 25.7295V26.2832ZM131.34 25.7637C131.34 24.6608 131.13 23.8154 130.711 23.2275C130.296 22.6396 129.706 22.3457 128.94 22.3457C128.193 22.3457 127.607 22.6396 127.183 23.2275C126.764 23.8109 126.55 24.638 126.541 25.709V26.2832C126.541 27.377 126.753 28.2223 127.176 28.8193C127.605 29.4163 128.197 29.7148 128.954 29.7148C129.719 29.7148 130.307 29.4232 130.717 28.8398C131.132 28.2565 131.34 27.4043 131.34 26.2832V25.7637ZM136.941 27.3018V31H135.212V21.0469H139.019C140.131 21.0469 141.013 21.3363 141.665 21.915C142.321 22.4938 142.649 23.2594 142.649 24.2119C142.649 25.1872 142.328 25.946 141.685 26.4883C141.047 27.0306 140.152 27.3018 138.999 27.3018H136.941ZM136.941 25.9141H139.019C139.635 25.9141 140.104 25.7705 140.428 25.4834C140.751 25.1917 140.913 24.7725 140.913 24.2256C140.913 23.6878 140.749 23.2594 140.421 22.9404C140.093 22.6169 139.641 22.4505 139.067 22.4414H136.941V25.9141ZM152.53 26.2832C152.53 27.2585 152.362 28.1152 152.024 28.8535C151.687 29.5872 151.204 30.1523 150.575 30.5488C149.951 30.9408 149.231 31.1367 148.415 31.1367C147.608 31.1367 146.888 30.9408 146.255 30.5488C145.626 30.1523 145.138 29.5895 144.792 28.8604C144.45 28.1312 144.277 27.2904 144.272 26.3379V25.7773C144.272 24.8066 144.443 23.9499 144.785 23.207C145.131 22.4642 145.617 21.8968 146.241 21.5049C146.87 21.1084 147.59 20.9102 148.401 20.9102C149.212 20.9102 149.93 21.1061 150.555 21.498C151.183 21.8854 151.669 22.446 152.011 23.1797C152.352 23.9089 152.526 24.7588 152.53 25.7295V26.2832ZM150.801 25.7637C150.801 24.6608 150.591 23.8154 150.172 23.2275C149.757 22.6396 149.167 22.3457 148.401 22.3457C147.654 22.3457 147.068 22.6396 146.644 23.2275C146.225 23.8109 146.011 24.638 146.002 25.709V26.2832C146.002 27.377 146.214 28.2223 146.638 28.8193C147.066 29.4163 147.658 29.7148 148.415 29.7148C149.181 29.7148 149.768 29.4232 150.179 28.8398C150.593 28.2565 150.801 27.4043 150.801 26.2832V25.7637ZM163.594 33.4473H161.953V31H155.397V33.4473H153.729L153.675 29.6191H154.475C154.871 29.2363 155.188 28.6803 155.425 27.9512C155.662 27.2174 155.814 26.388 155.883 25.4629L156.143 21.0469H162.418V29.6191H163.683L163.594 33.4473ZM156.43 29.6191H160.695V22.4414H157.79L157.626 25.2441C157.503 27.1172 157.104 28.5755 156.43 29.6191Z" fill="white"/>
</svg>
