<svg width="28" height="27" viewBox="0 0 28 27" fill="none" xmlns="http://www.w3.org/2000/svg">
<path d="M28 11C28 17.0751 23.0751 22 17 22C10.9249 22 6 17.0751 6 11C6 4.92487 10.9249 0 17 0C23.0751 0 28 4.92487 28 11Z" fill="#FDE7D3"/>
<path d="M12 19C11.2044 19 10.4413 18.6839 9.87868 18.1213C9.31607 17.5587 9 16.7956 9 16C9 14.88 9.61 13.9 10.5 13.39L20.21 7.77L14.68 17.35C14.18 18.33 13.17 19 12 19ZM12 6C13.81 6 15.5 6.5 16.97 7.32L14.87 8.53C14 8.19 13 8 12 8C9.87827 8 7.84344 8.84285 6.34315 10.3431C4.84285 11.8434 4 13.8783 4 16C4 18.21 4.89 20.21 6.34 21.65H6.35C6.74 22.04 6.74 22.67 6.35 23.06C5.96 23.45 5.32 23.45 4.93 23.07C3.12 21.26 2 18.76 2 16C2 13.3478 3.05357 10.8043 4.92893 8.92893C6.8043 7.05357 9.34784 6 12 6ZM22 16C22 18.76 20.88 21.26 19.07 23.07C18.68 23.45 18.05 23.45 17.66 23.06C17.27 22.67 17.27 22.04 17.66 21.65C19.11 20.2 20 18.21 20 16C20 15 19.81 14 19.46 13.1L20.67 11C21.5 12.5 22 14.18 22 16Z" fill="#F5953D"/>
</svg>
